# xmcd
#
# Track frame offsets:
#	150
#	17169
#	30578
#	46950
#	65178
#	85378
#	104068
#	121136
#	138381
#	151859
#	169447
#	191077
#	214247
#	230568
#	246475
#	263367
#
# Disc length: 3718 seconds
#
# Revision: 1
# Processed by: cddbd v1.5PL3 Copyright (c) Steve Scherf et al.
# Submitted via: CDex 1.50Beta5
#
DISCID=e90e8410
DTITLE=金井夕子 - BEST
DYEAR=1900
DGENRE=
TTITLE0=パステルラブ
TTITLE1=ジャストフィーリング
TTITLE2=午前0時のヒロイン
TTITLE3=ラストワルツインブルー
TTITLE4=オリエンタルムーン
TTITLE5=スリランカ慕情
TTITLE6=チャイナローズ
TTITLE7=Wait My Darling
TTITLE8=かわいい女と呼ばないで
TTITLE9=星と水の物語
TTITLE10=とけにくいメモリー
TTITLE11=離愁
TTITLE12=マヤマヤビーチ
TTITLE13=Loving You
TTITLE14=ラストシーン
TTITLE15=パーフェクトゲーム
EXTD=
EXTT0=
EXTT1=
EXTT2=
EXTT3=
EXTT4=
EXTT5=
EXTT6=
EXTT7=
EXTT8=
EXTT9=
EXTT10=
EXTT11=
EXTT12=
EXTT13=
EXTT14=
EXTT15=
PLAYORDER=
